<svg xmlns="http://www.w3.org/2000/svg" viewBox="0 0 100 100" fill="#101C38"><rect x="0.00" y="0.00" width="33.33" height="33.33" rx="4.29"/><rect x="4.76" y="4.76" width="23.81" height="23.81" rx="3.33" fill="#fff"/><rect x="9.52" y="9.52" width="14.29" height="14.29" rx="2.38"/><rect x="66.67" y="0.00" width="33.33" height="33.33" rx="4.29"/><rect x="71.43" y="4.76" width="23.81" height="23.81" rx="3.33" fill="#fff"/><rect x="76.19" y="9.52" width="14.29" height="14.29" rx="2.38"/><rect x="0.00" y="66.67" width="33.33" height="33.33" rx="4.29"/><rect x="4.76" y="71.43" width="23.81" height="23.81" rx="3.33" fill="#fff"/><rect x="9.52" y="76.19" width="14.29" height="14.29" rx="2.38"/><rect x="42.86" y="4.76" width="4.76" height="4.76" rx="1.05"/><rect x="38.10" y="9.52" width="4.76" height="4.76" rx="1.05"/><rect x="42.86" y="9.52" width="4.76" height="4.76" rx="1.05"/><rect x="47.62" y="9.52" width="4.76" height="4.76" rx="1.05"/><rect x="38.10" y="14.29" width="4.76" height="4.76" rx="1.05"/><rect x="38.10" y="19.05" width="4.76" height="4.76" rx="1.05"/><rect x="42.86" y="19.05" width="4.76" height="4.76" rx="1.05"/><rect x="52.38" y="19.05" width="4.76" height="4.76" rx="1.05"/><rect x="57.14" y="19.05" width="4.76" height="4.76" rx="1.05"/><rect x="38.10" y="23.81" width="4.76" height="4.76" rx="1.05"/><rect x="42.86" y="23.81" width="4.76" height="4.76" rx="1.05"/><rect x="38.10" y="33.33" width="4.76" height="4.76" rx="1.05"/><rect x="0.00" y="38.10" width="4.76" height="4.76" rx="1.05"/><rect x="4.76" y="38.10" width="4.76" height="4.76" rx="1.05"/><rect x="9.52" y="38.10" width="4.76" height="4.76" rx="1.05"/><rect x="14.29" y="38.10" width="4.76" height="4.76" rx="1.05"/><rect x="23.81" y="38.10" width="4.76" height="4.76" rx="1.05"/><rect x="33.33" y="38.10" width="4.76" height="4.76" rx="1.05"/><rect x="47.62" y="38.10" width="4.76" height="4.76" rx="1.05"/><rect x="52.38" y="38.10" width="4.76" height="4.76" rx="1.05"/><rect x="71.43" y="38.10" width="4.76" height="4.76" rx="1.05"/><rect x="76.19" y="38.10" width="4.76" height="4.76" rx="1.05"/><rect x="90.48" y="38.10" width="4.76" height="4.76" rx="1.05"/><rect x="95.24" y="38.10" width="4.76" height="4.76" rx="1.05"/><rect x="0.00" y="42.86" width="4.76" height="4.76" rx="1.05"/><rect x="14.29" y="42.86" width="4.76" height="4.76" rx="1.05"/><rect x="19.05" y="42.86" width="4.76" height="4.76" rx="1.05"/><rect x="23.81" y="42.86" width="4.76" height="4.76" rx="1.05"/><rect x="28.57" y="42.86" width="4.76" height="4.76" rx="1.05"/><rect x="38.10" y="42.86" width="4.76" height="4.76" rx="1.05"/><rect x="52.38" y="42.86" width="4.76" height="4.76" rx="1.05"/><rect x="61.90" y="42.86" width="4.76" height="4.76" rx="1.05"/><rect x="71.43" y="42.86" width="4.76" height="4.76" rx="1.05"/><rect x="80.95" y="42.86" width="4.76" height="4.76" rx="1.05"/><rect x="85.71" y="42.86" width="4.76" height="4.76" rx="1.05"/><rect x="0.00" y="47.62" width="4.76" height="4.76" rx="1.05"/><rect x="9.52" y="47.62" width="4.76" height="4.76" rx="1.05"/><rect x="14.29" y="47.62" width="4.76" height="4.76" rx="1.05"/><rect x="28.57" y="47.62" width="4.76" height="4.76" rx="1.05"/><rect x="38.10" y="47.62" width="4.76" height="4.76" rx="1.05"/><rect x="42.86" y="47.62" width="4.76" height="4.76" rx="1.05"/><rect x="52.38" y="47.62" width="4.76" height="4.76" rx="1.05"/><rect x="57.14" y="47.62" width="4.76" height="4.76" rx="1.05"/><rect x="61.90" y="47.62" width="4.76" height="4.76" rx="1.05"/><rect x="66.67" y="47.62" width="4.76" height="4.76" rx="1.05"/><rect x="76.19" y="47.62" width="4.76" height="4.76" rx="1.05"/><rect x="85.71" y="47.62" width="4.76" height="4.76" rx="1.05"/><rect x="14.29" y="52.38" width="4.76" height="4.76" rx="1.05"/><rect x="19.05" y="52.38" width="4.76" height="4.76" rx="1.05"/><rect x="33.33" y="52.38" width="4.76" height="4.76" rx="1.05"/><rect x="38.10" y="52.38" width="4.76" height="4.76" rx="1.05"/><rect x="52.38" y="52.38" width="4.76" height="4.76" rx="1.05"/><rect x="76.19" y="52.38" width="4.76" height="4.76" rx="1.05"/><rect x="80.95" y="52.38" width="4.76" height="4.76" rx="1.05"/><rect x="90.48" y="52.38" width="4.76" height="4.76" rx="1.05"/><rect x="0.00" y="57.14" width="4.76" height="4.76" rx="1.05"/><rect x="14.29" y="57.14" width="4.76" height="4.76" rx="1.05"/><rect x="19.05" y="57.14" width="4.76" height="4.76" rx="1.05"/><rect x="28.57" y="57.14" width="4.76" height="4.76" rx="1.05"/><rect x="33.33" y="57.14" width="4.76" height="4.76" rx="1.05"/><rect x="52.38" y="57.14" width="4.76" height="4.76" rx="1.05"/><rect x="61.90" y="57.14" width="4.76" height="4.76" rx="1.05"/><rect x="66.67" y="57.14" width="4.76" height="4.76" rx="1.05"/><rect x="71.43" y="57.14" width="4.76" height="4.76" rx="1.05"/><rect x="80.95" y="57.14" width="4.76" height="4.76" rx="1.05"/><rect x="85.71" y="57.14" width="4.76" height="4.76" rx="1.05"/><rect x="90.48" y="57.14" width="4.76" height="4.76" rx="1.05"/><rect x="38.10" y="61.90" width="4.76" height="4.76" rx="1.05"/><rect x="42.86" y="61.90" width="4.76" height="4.76" rx="1.05"/><rect x="71.43" y="61.90" width="4.76" height="4.76" rx="1.05"/><rect x="76.19" y="61.90" width="4.76" height="4.76" rx="1.05"/><rect x="80.95" y="61.90" width="4.76" height="4.76" rx="1.05"/><rect x="38.10" y="66.67" width="4.76" height="4.76" rx="1.05"/><rect x="57.14" y="66.67" width="4.76" height="4.76" rx="1.05"/><rect x="66.67" y="66.67" width="4.76" height="4.76" rx="1.05"/><rect x="42.86" y="71.43" width="4.76" height="4.76" rx="1.05"/><rect x="61.90" y="71.43" width="4.76" height="4.76" rx="1.05"/><rect x="85.71" y="71.43" width="4.76" height="4.76" rx="1.05"/><rect x="38.10" y="76.19" width="4.76" height="4.76" rx="1.05"/><rect x="61.90" y="76.19" width="4.76" height="4.76" rx="1.05"/><rect x="85.71" y="76.19" width="4.76" height="4.76" rx="1.05"/><rect x="95.24" y="76.19" width="4.76" height="4.76" rx="1.05"/><rect x="47.62" y="80.95" width="4.76" height="4.76" rx="1.05"/><rect x="71.43" y="80.95" width="4.76" height="4.76" rx="1.05"/><rect x="76.19" y="80.95" width="4.76" height="4.76" rx="1.05"/><rect x="80.95" y="80.95" width="4.76" height="4.76" rx="1.05"/><rect x="90.48" y="80.95" width="4.76" height="4.76" rx="1.05"/><rect x="95.24" y="80.95" width="4.76" height="4.76" rx="1.05"/><rect x="57.14" y="85.71" width="4.76" height="4.76" rx="1.05"/><rect x="66.67" y="85.71" width="4.76" height="4.76" rx="1.05"/><rect x="90.48" y="85.71" width="4.76" height="4.76" rx="1.05"/><rect x="38.10" y="90.48" width="4.76" height="4.76" rx="1.05"/><rect x="42.86" y="90.48" width="4.76" height="4.76" rx="1.05"/><rect x="71.43" y="90.48" width="4.76" height="4.76" rx="1.05"/><rect x="76.19" y="90.48" width="4.76" height="4.76" rx="1.05"/><rect x="85.71" y="90.48" width="4.76" height="4.76" rx="1.05"/><rect x="90.48" y="90.48" width="4.76" height="4.76" rx="1.05"/><rect x="95.24" y="90.48" width="4.76" height="4.76" rx="1.05"/><rect x="47.62" y="95.24" width="4.76" height="4.76" rx="1.05"/><rect x="66.67" y="95.24" width="4.76" height="4.76" rx="1.05"/><rect x="71.43" y="95.24" width="4.76" height="4.76" rx="1.05"/><rect x="80.95" y="95.24" width="4.76" height="4.76" rx="1.05"/><rect x="95.24" y="95.24" width="4.76" height="4.76" rx="1.05"/></svg>